<svg xmlns="http://www.w3.org/2000/svg" viewBox="0 0 800 514">
  <path fill="#f3a231" fill-rule="evenodd" d="M710.9 160c-18.8 1.5-19.9 1.7-23.4 4.4-2 1.5-4.3 4.2-5 6-1.3 2.6-14.7 47.2-41 136.9a163 163 0 0 1-6.6 19.7q-.7-.2-1.2-2.2c-.4-1.3-12.5-34.7-27.1-74.3-30.5-83-28.2-78.5-40.3-78.5a357 357 0 0 0-48 4.5c-1.6.7-4.3 3-6 5-2.3 3.2-2.8 4.8-2.8 9.4 0 5 2.5 11.4 21.4 57.1l55.6 134.5a453 453 0 0 0 17 38.4c4.5 5.2 6.1 5.3 34.2 3 27.9-2.1 30-2.7 33.5-8.7 1-1.6 8-21.5 15.7-44.3l38.6-114.4c13.6-40.2 25.4-75.7 26.3-79 1.4-5.8 1.4-6.3-.6-10.8-2.8-6.4-6.9-8.7-14.7-8.6-3.3 0-14.8.9-25.6 1.8m-271.4 21.7c-8.2.7-40.9 3.4-72.5 5.8-31.6 2.5-59.4 4.8-61.8 5.2-5.4.7-10.8 5.2-12.3 10.4-1.5 4.8 1.4 38.8 3.6 43 1.8 3.5 7 7.8 10.2 8.6 1.4.4 11.8 0 23.2-1s22-1.6 23.7-1.6h3l1.2 13.8L365 355c5.5 69.2 6.2 75.9 8.3 80 1.3 2.6 3.6 5.2 5.6 6.4 3.2 1.9 4.1 1.9 20.4.7 26.5-1.9 29-2.2 32.2-4 4.3-2.4 7.5-7.7 7.5-12.2 0-3.8-7.5-116-10.5-157.8-1-11.7-1.4-21.5-1.2-21.7.2-.3 11.3-1.3 24.7-2.4 20.5-1.7 24.8-2.3 27.6-4 3.8-2.4 7.4-9.2 7.4-14 0-3-12.6-34.8-15.8-39.8-2.1-3.3-8.4-6.2-13-6-2 0-10.4.7-18.7 1.4M106 208.2c-27.1 2.2-37.4 3.4-40 4.6-4.7 2.3-8 7.4-8 12.6 0 3.5 6.9 54.5 28.4 210.8 3 21.7 4.7 25.3 13.6 27.8 2.7.8 71.6-4.1 85-6 41.7-6 77.1-30 94-63.6a114 114 0 0 0 12-55c0-70.8-45.8-123.9-114.7-132.9-15.6-2-27.7-1.7-70.3 1.7m31.8 60.5c-2.1.2-3.8.8-3.8 1.3l7.5 61.2 8.1 65.6a19 19 0 0 0 1.3 5.6c1.3.6 19.8-1.4 26.9-3 30.9-6.8 46.5-32 42.3-68.2-3-25.8-11.7-42.4-27.7-53.1-11.3-7.6-17.8-9.4-35.9-9.6-8.2-.2-16.7 0-18.7.2"/>
  <path fill="#074c74" fill-rule="evenodd" d="M484.1 29.4A90 90 0 0 1 457 41.6c-7.4 1.6-29.1 1.5-39.5-.2l-4-.6 2.5 2.8 3.1 3.4c4 3.4 9.8 19.7 9.4 26.5-.2 2.8-.7 3.2-7.8 5.7A101 101 0 0 0 389 96.7c-4.5 4.3-6.3 5.3-10 5.8l-10 1.5a62 62 0 0 1-29.1-4 68 68 0 0 1-37.2-36c-1-2.5-1.7-5.3-1.7-6.3 0-2.8-1.7-2-3 1.5a35 35 0 0 1-20 20.6c-8.6 2.6-8.8 2.5-11-1.7a115 115 0 0 0-21.4-27.8c-5.9-5.5-6.9-6.1-9-5.3a58 58 0 0 0-30.1 30.7c-1.7 3.5-2.5 4.2-5.7 4.6a26 26 0 0 0-16 9c-2.6 3.7-3 4.8-2.6 9.5q.9 9.5 10.9 15.2c6 3.4 18.4 3.6 24.5.3 8.9-4.7 12.6-14.2 8.6-22-2-4-7.4-9.3-9.3-9.3-2.7 0 8.1-12.6 13.7-16 3-1.9 4-2 5.7-1 5.5 3 15.8 20.3 19.4 32.5 1.8 6 1.8 6 5.8 6.2A55 55 0 0 0 293.3 93l3.4-3 3.8 6.4c8.2 14 19.7 25.2 29.9 29.1 2.5 1 4.6 2.5 4.9 3.6.4 1.5-.4 2-5.2 3q-60.4 12.6-88.8 30.2l-10.4 6.3c-3.7 2.1-.6 2.3 4.5.2a385 385 0 0 1 65.1-17.3c16.3-3 14.5-2.7 39-6 42-5.6 40-5.4 73.5-6a258 258 0 0 1 37.6 1c21.8 3 37.3 8.1 49.6 16.2l3.8 2.5-5 4.8a42 42 0 0 0-7.1 9.9c-1.3 2.8-2.7 5.1-3.1 5.1s-1.5-1.6-2.4-3.5a39 39 0 0 0-19-16c-6.4-2-12-1.7-49.9 2l-18 1.5-17 1.5c-4.6.6-9.3 1-27.2 2.5-7 .6-14.4 1.2-16.3 1.5l-12 1a738 738 0 0 0-31 2.9 33 33 0 0 0-25.2 17.3 42 42 0 0 0-4.4 20.1l1.2 6.7 1.4 10c.5 3.2.8 6 .7 6.1s-3.4-2.8-7.3-6.5c-22.9-22-52.7-36-85.4-39.8-15.3-1.8-41.8-.8-73 2.7l-13.5 1.5c-28.8 2.5-30.1 2.7-35.8 5.2a33 33 0 0 0-17.1 19 31 31 0 0 0-1.6 19.7c.5 1.4 1.1 4.4 1.4 6.8s1 6.8 1.6 9.8l1.6 8.5 7 40.2c.3 2.6 1 6.4 1.4 8.3l1.5 8c.3 2.5 1 7 1.6 10l1.9 11 2.5 14.5 6 34.5a1880 1880 0 0 1 7 41.5l2.6 14c2.3 13.2 3 15.7 5 19.6 3 6 9.4 11.8 16.7 15.1s6.6 3.3 29.4 1l47.8-4.7a162 162 0 0 0 77.8-26.7c9.9-6.7 27.4-24.5 33.2-33.6l4.5-7 5.5.4c3 .2 5.7.7 6.1 1.2s1.3 4.5 1.9 9.2c1.9 14.2 1.3 13.3 8.4 12.5 8.7-1 9.6-2 9.6-12v-8.3l10.8-.6 17-1c3.4-.2 6.4 0 6.6.3s.7 3.8 1 7.6c1.8 19.3 3.3 23.8 10.5 31.1a27 27 0 0 0 21.1 8.8 274 274 0 0 0 39-2.9 31 31 0 0 0 28.2-22c1.5-5 1.6-11.9.3-27.2-.8-9.2-1.4-8.4 8.5-10.2 9-1.6 32.6-7 47.3-10.7 7.6-2 14-3.4 14.1-3.2.2.1 1.3 4.7 2.5 10l2.2 9.8h3.8a11 11 0 0 0 6.5-2c2.4-2 2.6-2.7 2.6-10.3 0-14.7 0-14.6 9.9-19.8l8.7-4.5 5.9 14a911 911 0 0 0 12.5 29.1l7 16a32 32 0 0 0 14 16.3c4 2.4 5.6 2.7 14.5 2.8 5.5.1 13.6-.2 18-.7l17-1.4c12-.8 17.2-2 22-5.2 4.5-2.8 10-8.5 12-12.5a870 870 0 0 0 15-42.8l4.6-13.5a36690 36690 0 0 0 55.5-163c7.4-22.5 7.6-23.2 7-30.8a33 33 0 0 0-20.4-29.7c-5-2-7-2.2-16.7-1.6-6 .3-11.9.8-13 1s-6.3.7-11.5 1c-19.7 1.4-25.4 3.2-32.5 10.4-6 6-8.8 12-13.9 30.2l-23.7 84.8-2.3 8.4-1.2-3.9-5.2-14.8-26.6-74c-6-16.4-13.7-25.4-25-28.7-2.2-.7-4.7-2-5.4-3-2.3-3.2-17.5-14-25-17.7a159 159 0 0 0-54-13.6c-8.7-.8-37-.8-54.3 0-8 .4-14.1.5-13.8.1.4-.4.2-2.7-.2-5.2-.8-4-.6-5 1.3-7.6a87 87 0 0 1 25-17.8c8.4-3.8 8.7-4.3 6.7-11.4a66 66 0 0 0-7.8-17q-3.6-2.5 4.7-2.6a49 49 0 0 0 20.8-5l3.2-1.8.5 4c.9 6.6 5.4 12.9 11.6 16 3.1 1.6 7 2.8 9.3 2.8 3.2 0 3.8.3 3.8 2 0 2 2.8 8.1 5.2 11.1 4.4 5.4 13.2 6.3 20 2A26 26 0 0 0 535 65.2c0-18.9-17.9-26.4-30-12.6-1.7 2-3.7 4.7-4.3 6q-1 2.7-3.1 2l-3.3-.6c-2.2 0-6.1-5.3-7.3-9.8a62 62 0 0 1-1-12.9c.3-8.9 0-10.2-1.9-8M710.9 160c-18.8 1.6-19.9 1.8-23.4 4.5-2 1.5-4.3 4.2-5 6-1.3 2.6-14.7 47.2-41 136.9a163 163 0 0 1-6.6 19.7q-.7-.2-1.2-2.2c-.4-1.3-12.5-34.7-27.1-74.3-30.5-83-28.2-78.5-40.3-78.5a357 357 0 0 0-48 4.5c-1.6.7-4.3 3-6 5-2.3 3.2-2.8 4.8-2.8 9.4 0 5 2.5 11.4 21.4 57.1l55.6 134.5a453 453 0 0 0 17 38.4c4.5 5.2 6.1 5.3 34.2 3 27.9-2.1 30-2.7 33.5-8.7 1-1.6 8-21.5 15.7-44.3l38.6-114.4c13.6-40.2 25.4-75.7 26.3-79 1.4-5.8 1.4-6.3-.6-10.8-2.8-6.4-6.9-8.7-14.7-8.6-3.3 0-14.8.9-25.6 1.8m-271.4 21.7c-8.2.7-40.9 3.4-72.5 5.8-31.6 2.5-59.4 4.8-61.8 5.2-5.4.7-10.8 5.2-12.3 10.4-1.5 4.8 1.4 38.8 3.6 43 1.8 3.5 7 7.8 10.2 8.6 1.4.4 11.8 0 23.2-1s22-1.6 23.7-1.6h3l1.2 13.8L365 355c5.5 69.2 6.2 75.9 8.3 80 1.3 2.6 3.6 5.2 5.6 6.4 3.2 1.9 4.1 1.9 20.4.7 26.5-1.9 29-2.2 32.2-4 4.3-2.4 7.5-7.7 7.5-12.2 0-3.8-7.5-116-10.5-157.8-1-11.7-1.4-21.5-1.2-21.7.2-.3 11.3-1.3 24.7-2.4 20.5-1.7 24.8-2.3 27.6-4 3.8-2.4 7.4-9.2 7.4-14 0-3-12.6-34.8-15.8-39.8-2.1-3.3-8.4-6.2-13-6-2 0-10.4.7-18.7 1.4M106 208.2c-27.1 2.2-37.4 3.4-40 4.6-4.7 2.3-8 7.4-8 12.6 0 3.5 6.9 54.5 28.4 210.8 3 21.7 4.7 25.3 13.6 27.8 2.7.8 71.6-4.1 85-6 41.7-6 77.1-30 94-63.6a114 114 0 0 0 12-55c0-70.8-45.8-123.9-114.7-132.9-15.6-2-27.7-1.7-70.3 1.7m395 30.3a47 47 0 0 1-16.4 19c-5 2.9-12 4.3-25.6 5-5.8.3-11.6.8-12.8 1l-2.4.6.6 13.2 1.1 16.7c.3 2 .7 7.6 1 12.5 1.8 33.8 3.3 55.6 3.7 56 .2.2 7-1.6 15.3-4 25-7.2 45.4-17.3 56.8-28 5.8-5.4 13.7-16.7 13.7-19.6 0-1.6-8.8-23-20.1-48.7a734 734 0 0 1-10.7-25l-2-4.3zm-363.2 30.2c-2.1.2-3.8.8-3.8 1.3l7.5 61.2 8.1 65.6a19 19 0 0 0 1.3 5.6c1.3.6 19.8-1.4 26.9-3 30.9-6.8 46.5-32 42.3-68.2-3-25.8-11.7-42.4-27.7-53.1-11.3-7.6-17.8-9.4-35.9-9.6-8.2-.2-16.7 0-18.7.2m187.2 6a105 105 0 0 1-29.5-.2q-2.3-1.1-.9.6c1.5 2 7 21 8.3 28.4a205 205 0 0 1 2.7 35.5l-1.2 11.5a144 144 0 0 1-7.4 33.2c0 .2 2.8.2 6.3-.1l15.7-1.1c5.2-.3 14.1-1 19.8-1.7 11.7-1.2 10.8.2 9.2-14.3l-1.5-13-2-17.5a3725 3725 0 0 1-6.3-56l-.7-6.5zm-172.7 15c.4 1 .9 4.4 1.2 7.4s.7 6.6 1 8l1 6.5a2720 2720 0 0 0 7 55.5c.5 2 1.8 14.8 1.6 15.8-.4 2.2 2.2 2.3 9.2.3 13.4-3.9 21-10.2 24.8-20.8 2.1-6 2.4-8.3 2.3-20.8a52 52 0 0 0-3.3-23.4 66 66 0 0 0-6.7-14.3 41 41 0 0 0-31.3-15.5c-6.8-.5-7.3-.5-6.8 1.3"/>
</svg>