<svg xmlns="http://www.w3.org/2000/svg" viewBox="0 0 1024 492">
  <path fill="#0620da" d="M545.3 332.1c-10.6 2.8-33 3.5-42.7 1.3-25-5.5-40.2-26.6-35.6-49a40 40 0 0 1 15.3-24.5c4.1-3 4-3.1-3.8-4.4a130 130 0 0 1-48.6-22A108 108 0 0 1 396.8 97 132 132 0 0 1 472 32.3c22.6-8 56.4-8.5 81-1.3 41.2 12 74 45.6 86 88.1a75 75 0 0 1 2.4 25.5c0 15.2-.2 18-2.6 26.7a107 107 0 0 1-53.1 67l-6 3 3 3.1a60 60 0 0 1 11.4 20 52 52 0 0 1-1.4 32.2c-7.8 16.8-24.9 29.7-47.4 35.6m-50.7-92.3c9.9 5.2 11.7 5.4 10.2 1.1-2.4-6.8 1.8-18.9 10.9-31.6 6.5-9.1 28.3-31.4 46.7-47.7 16.3-14.5 28-27.2 33.7-36.7 13-21.4 8.9-44-11.4-63.6a80 80 0 0 0-34-20.2c-10-3-10.3-2.9-5.8 3.1 14.7 19.7 16.2 43 4 61.9-6 9.1-15.9 19-35.4 35.4Q484 166.3 475.1 180c-14.5 22.6-7 46 19.5 59.9m-87.3-108.4c.6 1.4 4.3 1.6 29.5 1.6h28.9l.6-17.7c1.2-36 6.8-53.6 22-69.9l7-7.5-4.4.7c-12 1.8-28.5 8.7-40.4 16.7a129 129 0 0 0-26.2 26.2 112 112 0 0 0-13 26.5c-2.6 8-4.8 21.4-4 23.4m94.2 193.2a40 40 0 0 0 11 1.1 32.9 32.9 0 0 0 14.3-62.3c-5-2.7-6-2.9-15.8-2.9s-10.9.2-16.5 3.2a32 32 0 0 0-18.2 30.8c.8 14.3 10 25.1 25.2 30.1"/>
  <path fill="#1699e0" d="M328.8 334c-8.4 5.1-19.8-1.4-19.8-11.3 0-8.9 7.2-33.2 14.4-48.2a200 200 0 0 1 54.2-66.7c9.5-7.2 10-7.4 12-3.6 1 1.8 4 6.6 6.7 10.6s4.8 7.4 4.6 7.6l-6.4 5a213 213 0 0 0-30.2 30.4 156 156 0 0 0-27 57.2c-3.2 13.6-4.6 16.6-8.5 19m381.3.4c-6 3.2-13.6 1.1-17.5-4.9-1-1.5-2.2-5.7-2.7-9.4-2-13.8-8.7-32-17.4-46.6a169 169 0 0 0-46.1-50.3c-1.7-1-1.7-1.1 0-3.3l7.2-10.7 5.6-8.3 3.6 2.7a208 208 0 0 1 49.7 52.2c11.5 18 21.8 44.6 24 62.4.9 7-1.8 13.9-6.4 16.2m70 106.7q-7.5 7.5-15.5-5l-3.8-5.8-7.2.5a23 23 0 0 1-12.2-1.7c-12.7-5.5-19.3-19.1-18.1-37.1 1-13.3 6.8-24.6 15.4-29.7 3.6-2 6.3-2.7 12.4-3.1 7-.4 8.4-.2 13.3 2.2 17.8 8.7 23.9 34 13 54.5l-3.4 6.5 3.4 4c6.5 8 7 10.4 2.7 14.7M326.8 446q-4.7 4-9.4-.4L315 443v-28c0-26.6 0-28 2-30.5a6.6 6.6 0 0 1 10-.6c2 2 2 2 5.6-.5 7.9-5.3 17.5-2 22.7 8 1.7 3.3 2 5.9 2.1 14 .1 9.4-.1 10.4-3 15.5-5.2 9.4-14.4 12.4-21.6 7l-3-2c-.2 0-.1 2.5 0 5.6.5 7.5-.4 12-3 14.4m-26.6-16.2c-16.1 4.8-29.6-5.7-29.6-23.2q0-11.8 5.6-18.2c12.1-13.8 33.1-7.6 34.6 10.2.4 4.7.1 5.8-1.9 8-2.1 2.2-3 2.4-12.5 2.4-5.7 0-10.5.4-10.8 1-.4.4.5 2.2 2 4 2.9 3.4 7 4 11.4 1.5 5.3-3 11-.6 11 4.7 0 2.9-5.6 8.4-9.8 9.6m383.6-2c-3.8 3.5-11 4.1-15.6 1.2-5.8-3.6-7.2-8.3-7.2-25.5 0-17.6.7-19.5 6.9-19.5s7.1 1.8 7.1 15.8c0 14.5.8 17.2 5 17.2 5 0 6-2.7 6-16.5 0-14.3 1-16.5 6.9-16.5q3.8 0 5.6 2c1.7 1.9 1.9 3.8 1.7 20.8-.3 21.3-.8 23.2-6.7 23.2q-3.5 0-5.2-2.4l-1.8-2.4Zm63.2-13c1.4.6 3.3 1.2 4.2 1.2 1.4 0 1.5-.4.6-2.8-1.6-4.1-.3-7.7 3.2-9.2 2.5-1 3.4-1 5.5.4 1.4 1 2.5 2.2 2.5 2.8q0 1.4 1.2 0c.7-.7 1.4-5 1.6-10.4.3-8.6.1-9.7-2.5-14.8-2.3-4.6-3.5-5.7-6.9-7-3.7-1.2-4.4-1.1-8 .6q-8.9 4.2-8.8 19.9c0 6.6.5 9 2.4 13a16 16 0 0 0 5 6.2M333.4 416c2.3 1.5 5.5.7 7.5-1.8 1.6-2 2.1-4.1 2.1-8.9 0-7.1-2.5-11.5-6.5-11.5-1.4 0-3.2 1.1-4.4 2.6-3.5 4.4-2.7 17 1.3 19.6m-47-16.2c.9 1.3 10.3 1.3 11 0 1-1.5-1.7-6-4-6.6-4-1-8.8 3.5-7 6.6"/>
  <path fill="#65b23d" d="M292.7 334c-7.4 4.6-17.2.6-19.7-8-1.3-4.7 2.1-22.7 7.6-39.7a223 223 0 0 1 65.9-98c10.3-8.9 26.4-20.3 28.5-20.3.5 0 1.4 2 2 4.3s2.3 8 3.9 12.5l2.8 8.3-9.6 7.1a215 215 0 0 0-51 56.6 186 186 0 0 0-23.7 64.2c-.9 7-2.7 10.6-6.7 13m455-.2c-5.5 3.7-12 2.8-17-2.6-2.3-2.3-3-4.4-3.8-10.3-6.1-45-35-91.7-75-121.5l-8.7-6.6 2.3-6.2c1.3-3.4 3-9 3.6-12.4q1.3-6.1 2.7-6.2c.8 0 5.8 3 11 6.7 38 26.1 68 66.1 82.2 109.3 7.5 22.7 10 38 7.2 44.5-.7 1.6-2.7 4-4.5 5.3m-536.4 95.8c-10.3 3.1-23.2.2-29-6.5-3-3.5-3-9.3-.1-12 2.7-2.5 8-2.7 10-.4 2.3 2.8 9.6 5.5 12.9 4.8 4-1 6.6-4.8 5.1-8-.8-1.7-3.3-3-10.5-5.4-14.8-5-19.7-10.3-19.7-21.7a23 23 0 0 1 10.4-17.9c9.6-5.8 26.8-4.1 32.6 3.3 2.6 3.2 2.6 9.3.2 11.6q-3.8 3.5-10.7-1c-8.5-5.1-17.8-1.4-14.9 6 .4 1 3.7 2.5 7.8 3.8 3.9 1.1 8.7 2.9 10.6 3.9 10.3 5.1 13.9 17.2 8.6 28.5-2.7 5.7-6.6 9-13.3 11m428.2-1.2c-12 8.2-25.5-3.2-25.5-21.3 0-9.7 1.5-14.4 6.6-20 4.1-4.6 4.2-4.6 10.5-4.5 3.5 0 7.4.4 8.6.8 2.3.8 2.3.7 2.3-7.2 0-7.5.2-8.2 2.6-10.1 3.3-2.6 6.8-2.7 9.3-.2 2.7 2.7 3.3 10.4 3 36.7-.4 19-.6 22.3-2.2 24.7-2.2 3.4-7.8 3.8-10 .6-1.5-2-1.5-2-5.2.6m-381 1.5c-18.8 5.2-33.3-12.6-27.1-33.1a21.7 21.7 0 0 1 29.5-14.2c6.7 2.7 9.2 9.3 5.1 13.4-2.5 2.5-3.1 2.5-8.2 0-5-2.7-8.2-2-10.8 2.3-3.5 5.7-2.3 14.2 2.5 17.3 2.5 1.6 2.8 1.6 7.1-.4 5.4-2.7 7.6-2.7 9.8-.4 4.3 4.8 0 12.9-8 15.1m736.4-.4a21 21 0 0 1-28.8-11c-5.4-14.5 0-31 11.6-34.9a21 21 0 0 1 17.2.6c5.6 3 8 6.7 6.3 10.3-1.8 4-5.6 5.3-9.2 3.2-7.5-4.5-13-.5-13 9.5 0 5 .4 6.2 2.6 8.4 3.3 3 5.3 3 8.7.4a10 10 0 0 1 5-2c2.9 0 6.7 3.4 6.7 6 0 2.7-3.8 7.9-7 9.5m-363.4-14c2.9 3 4.5 3.1 7.6.6 1.9-1.5 2.4-3 2.7-8.3q1-13-6.3-12.8c-4.5 0-6.5 3.6-6.5 12 0 5.1.4 6.5 2.5 8.6"/>
  <path fill="#8559bd" d="M364.7 333c-5.3 3.3-12.8 2-17.1-2.9-7.5-8.3 4.3-41.5 24.1-67.9 6.8-9 20.1-22.4 29.2-29.3l6.4-4.9 5.6 5.2c3 2.8 7.7 6.7 10.4 8.6l4.7 3.4-3.7 2.5a150 150 0 0 0-28.7 27 130 130 0 0 0-24 46.8q-1.5 8.4-6.9 11.5m310-2c-4.6 2.1-6.6 2.3-11.4.9-3.6-1-8.3-6.1-8.3-9s-5.5-19-8.6-25.1a149 149 0 0 0-39.8-46.9c-4.1-3-7.5-5.7-7.6-6s2-2 4.4-3.7 7-5.5 10-8.3l5.6-5.1 5.7 4.2a179 179 0 0 1 36.7 39.3c12.8 19.7 22 46.6 18.7 55q-1.2 2.8-5.3 4.7m134 98c-4.9 3-11.7 2.7-15.8-.7-5.2-4.4-5.9-7.5-5.9-24.6 0-14.1.2-15.7 2-18 2.4-3 6.4-3.6 9.4-1.4 2.4 1.7 3.5 8.4 3.5 21.5.1 10 .2 10.3 2.6 11.4 2.2 1 2.9.9 4.8-1 2-2 2.3-3.5 2.7-15.8.5-12.8.6-13.7 2.9-15.5 3.2-2.6 6.7-2.4 9.6.6 2.5 2.4 2.5 2.7 2.5 20 0 18.6-1 23.8-4.6 24.7-3.1.8-6.8-.6-7.9-3-1-2.3-2.5-3-2.5-1.2 0 .6-1.5 2-3.2 3m-421.6-.3c-3.6 2.4-4.6 2.6-10 1.3-8.2-2-11.1-8.7-11.1-26 0-9.8 0-10-2.4-10-5 0-7.5-7-3.8-10.4a7 7 0 0 1 4-1.6c1.7 0 2-.8 2.4-6 .5-7.2 2.6-10 7.4-10 5.3 0 7.4 2.8 7.4 10v6h3.5c9.5 0 10 11 .5 12.5l-4 .7v8.8c0 10.4.5 12 3.4 12 1.2 0 3.2.7 4.4 1.6 3.6 2.5 2.7 8.1-1.7 11.1m21.5.5c-.6.4-2.2.7-3.6.7-7-.2-8-3-8-24.1 0-15.5.2-17.6 2-20.6 1.6-2.6 2.6-3.2 5.5-3.2a8 8 0 0 1 5.5 2c1.9 1.9 2 3.3 2 21 0 18.6-.5 22.3-3.4 24.2m-.3-53.3c-8.3 3.8-15.3-6-8.9-12.4 3.5-3.5 8.7-3.4 11.5.1 3.4 4.3 2.1 10.2-2.6 12.3m131.2-348a157 157 0 0 0-48.3-.3l6.2-1.1 16.8-2.8 14.2 2.2zm39.1 13.8"/>
  <path fill="#f13c58" d="M220.6 334.1c-6 3.6-14.2 1.5-18.2-4.6-3.8-5.9 1.4-40.7 9.9-66a296 296 0 0 1 32-66A300 300 0 0 1 350 101c14.7-7.8 42-19.7 42-18.4L386.5 94c-3 6-6.2 13.6-7.1 17l-1.7 6-12.6 6.6a269 269 0 0 0-65 47.3 253 253 0 0 0-66.5 115.2c-3.3 13-4.8 21-6.1 33.4-.8 7.6-3 12.2-7 14.6m598.8-.2c-5.4 4.2-15.5 1.7-18.7-4.6a57 57 0 0 1-2.6-13.2c-1.7-15.6-4.7-29-10-45.1a256 256 0 0 0-125.6-147.5 121 121 0 0 1-12.1-6.9c-.6-.6-2.3-4.7-3.9-9.1a132 132 0 0 0-7-16.2c-2.3-4.6-3.8-8.3-3.3-8.3a280 280 0 0 1 96.8 57.7c47.5 41.6 82.8 105.6 90.5 164.1 2.6 19.4 1.9 24.4-4.1 29.1M456.2 447c-3.7 2-7.3 1-9.5-2.8q-1.7-2.8-1.7-10v-7l-4 2c-7.5 4-16.3 0-21.3-9.5-1.7-3.3-2.1-5.9-2.2-13.1 0-10 1.9-15.7 6.9-20.6 5.5-5.4 15.6-6 20-1 1.7 1.8 1.8 1.8 4.1-.5 4.3-4.3 9.7-2.7 11.4 3.4.6 1.8 1 14 1 27.2.2 25.5-.4 29.6-4.7 32M65.4 428.4c-1 .3-9.5.6-19.1.6-17.2 0-17.5 0-20-2.4L24 424v-28c0-28.7.5-33.2 4-35.1a11 11 0 0 1 9 0c3.2 1.7 4 7.6 4 30.3V413h11.8c13 0 15.6.9 16.7 6 .7 3.3-1.5 8.4-4 9.4m796 1.5c-7.2 2.7-10.8 2.6-17-.3-9.4-4.4-13.7-11.4-13.7-22.6-.1-14.6 8.7-25 21.5-25 11.4 0 18.7 7.4 18.7 19 0 7.9-1.8 9-14 9-5.4 0-10.1.4-10.5 1-1 1.6 1.3 4.7 4.5 6 2.8 1.1 3.8 1 8.5-1 6.2-2.5 9-1.7 10.1 2.6 1.2 4.8-1.8 9-8 11.3m0-54.7c-5.8 4-8.8 4.8-11.6 3.4q-2.4-1.1-2.7-4.2c-.2-2.5.5-3.9 4.5-7.8 6.9-6.7 12.4-7.5 15.3-2.4 1.3 2.5 1.3 3 0 5.5a21 21 0 0 1-5.5 5.5m-426.1 40.5c3.2 2.7 3.5 2.8 6.4.8 2.6-2 4.4-8 3.6-12.6q-2.2-13-9-8.4c-3.4 2.2-4.7 6-4.1 12.4.3 4.4 1 5.9 3.1 7.8m411.3-14.4c.3.4 3 .7 6 .7 4.8 0 5.3-.2 5.3-2.2 0-2.9-2.8-5.8-5.6-5.8-3.7 0-7.8 5.3-5.7 7.3"/>
  <path fill="#f8ab22" d="M257.7 332.9c-3.3 3-11 3.8-14.9 1.6A15 15 0 0 1 236 322c0-13 6.7-40.6 14.7-60.9a229 229 0 0 1 30.2-53.9 262 262 0 0 1 93.5-79c.2.3 0 7.2-.2 15.4l-.4 15-7.2 4.2c-21 12.3-45.5 35-62.5 57.7-15.7 21-27 43-34.5 67.3A165 165 0 0 0 263 320c0 5.2-2 9.9-5.3 13m528-.2c-3 2.7-4.5 3.3-8 3.3a13 13 0 0 1-12-7.1c-.8-1.9-2-7.4-2.6-12.4a206 206 0 0 0-29.3-79.8 229 229 0 0 0-80.5-78.2 259 259 0 0 1-.3-30.5 259 259 0 0 1 118.6 123.1c11.3 26.4 19.4 58.4 18.2 72.5-.4 5-1 6.1-4.1 9M904 430.9a21 21 0 0 1-4.5 1c-1.3 0-6.5-2.4-8.8-4.1-1.4-1-2.1-.9-4 1q-5 4.7-9.3-1.2l-2.6-3.4.3-28.2.3-28.2 2.4-1.9c1.3-1 3.8-1.9 5.6-1.9 5 0 6.5 2.8 6.5 12.6 0 4.4.2 8.3.5 8.6s2.4-.4 4.7-1.5c3.6-1.8 4.6-2 8.7-.8 5.7 1.4 9.2 5.1 12 12.5 5.4 14.5-.3 31.6-11.8 35.5m-799-3a24 24 0 0 1-26.7-2.9c-10.5-9.7-8.7-33.9 3-41.5a30 30 0 0 1 7.8-2.7c4.8-1 6.2-1 10.4.7a19 19 0 0 1 12 13c1.6 5.7.5 11.8-2.6 13.5-1 .5-6.4 1-12 1-9.2 0-10 .1-10 2 0 2.2 4.5 6 7.2 6 1 0 3.9-.9 6.3-2 5.3-2.4 9-1.5 10.1 2.6q1.6 6.4-5.4 10.2m438.6-.5c-3.3 2.6-4.7 3-10.5 3.3-8.5.3-12.7-1.1-17.3-6-11.2-11.4-8.3-34.2 5.3-41.3 3.6-1.9 15-1.8 18.7 0 9 4.7 13 18.7 7 24.2-1.7 1.5-4.2 2-12.5 2.4l-10.3.5 1.2 2.4c.7 1.4 2.6 3 4.3 3.7 2.6 1 3.6 1 7.3-.7q11.9-5.3 11 4.7c-.3 2.9-1.2 4.4-4.2 6.8m406.6 3a20 20 0 0 1-16.3-.5 18 18 0 0 1-10.6-10.1 32 32 0 0 1 .2-25.6c1.4-2.9 4-6.3 5.8-7.6 13.6-10.2 31.6-1.8 31.6 14.7 0 7-2.1 8.7-11.2 8.8a152 152 0 0 0-12 .8c-2.6.2-2.2 2.7.8 5 3.3 2.6 6 2.6 10.9.1s5.6-2.5 8.3 0c4.6 4.3.9 11.6-7.5 14.4M489 427.6c-5 4.8-15.7 3.8-19.8-1.8-3.3-4.6-4-8.4-4-23.3 0-12.7.2-15.3 1.7-17.2 2.5-3.3 7.2-4 10.2-1.5 2.4 2 2.5 2.5 2.8 16.6s.4 14.7 2.7 16.2c1.8 1.2 2.8 1.3 4.4.4 2.6-1.4 3-2.9 3.4-17.5.2-6.6.8-12.8 1.1-13.7.5-1 2.3-2.2 4.2-2.8 2.9-1 4-.9 6 .4a8 8 0 0 1 3 4c.3 1.2.4 10.7.2 21-.3 17.2-.5 18.9-2.2 20.2-3.2 2.3-7.3 1.8-9.2-1.2l-1.7-2.5Zm-344.4.5c-6.6 3.7-19 2.8-25.3-1.8-3.4-2.5-4.3-9-1.6-11 2.6-1.9 6.9-1.6 10.6.7q5.9 3.5 8.6.8c2.4-2.4 1-3.7-6.8-6.3-11.5-3.8-15.5-9.4-13-18.2 1.2-4.7 3.8-7.6 9.3-10.4 3.4-1.8 5.2-2 11-1.6 9.8.8 15.2 5.4 13.3 11.4-1 3.4-4.2 4.5-8.2 2.8-2-.8-5.2-1.5-7-1.5-3 0-3.5.3-3.2 2.2.2 1.7 1.7 2.6 6.5 4 3.4 1.2 7.6 3.3 9.4 4.8 3 2.4 3.3 3.3 3.7 9 .3 5.6 0 7-2 10a20 20 0 0 1-5.3 5.1m436.2.3c-2 1.5-4.6 2.1-9.5 2.3-8 .3-11.7-.7-15.4-4.1-3.8-3.6-4.4-6.3-2-9.5 2.5-3.4 5.4-3.7 9.7-1.1 4.4 2.7 10 2.4 10-.5 0-1.6-1.3-2.4-6.1-4a46 46 0 0 1-8.7-3.8c-9.5-6.3-6.1-22 5.4-25.5 6.8-2 19 .2 21 3.8 1.5 3 1 7.5-1 9.4-2.3 2-2.6 2-7.9-.5-3.5-1.7-4.8-2-6.8-1-4.5 2-3.6 2.9 9.1 8 7 2.7 9.8 6.9 9.3 13.9a16 16 0 0 1-7.1 12.6m312.6-11.6q9.3 4.7 9.2-10.5c0-6.7-.3-7.7-2.4-9.4-3-2.5-4.7-2.4-7.6.6-2 2-2.5 3.4-2.5 8.2 0 7.6.7 9.9 3.3 11.1m42.4-15.6c.5 1 10.7 1 11.5.2 1.1-1-1.3-6.3-3.2-6.9-3.9-1.2-10 3.8-8.3 6.8M88 400.2c1.3.9 9.8.3 10.8-.7.8-.7-1.9-5.4-3.4-6-4.4-1.7-11 4.3-7.4 6.7m436.6.3c.4.3 3 .6 6 .6 5 0 5.3-.1 5.3-2.5 0-5-8.5-6-10.8-1.1-.6 1.3-.8 2.7-.5 3"/>
</svg>