<svg xmlns="http://www.w3.org/2000/svg" transform="rotate(285)" viewBox="0 0 228 228">
  <path fill="#ff5117" d="m78.4 162.6-5.8 11.7s-11.2.2-11.9-.2-8-46.3 25.4-83c35.2-38.9 79.5-38.6 80.6-37.3s.8 16.8.8 16.8z"/>
  <path fill="#ff8e00" d="M120.8 78.2a93 93 0 0 0-46 60.4c-3.7 14-2.3 35.6-2.3 35.6h12.9l38.4-56.4L167.5 77V65s-26.1 1.7-46.7 13.3"/>
  <path fill="#f9d81e" d="M94 125c-10.5 20.2-8.6 49.2-8.6 49.2H98l43-57.2 26.5-27.2V77s-15.1-.1-38.6 11.2A80 80 0 0 0 94 125"/>
  <path fill="#97cc37" d="M115.5 114.7c-21.9 27.4-17.8 59.5-17.8 59.5h14l24-43.4 31.8-26.4V89.7s-32.5.6-52 25"/>
  <path fill="#00c0e9" d="M127 120.9c-21.9 21-17 53.3-17 53.3h11.2l16.8-42 29.5-15.5v-14.5s-19.3-1.7-40.6 18.7"/>
  <path fill="#8177fa" d="M167 124.7c.7-1 .5-12 .5-12s-18.3-.3-33.7 17c-15.3 17.3-13 44.5-13 44.5s10.4.4 10.9-.5c.8-1.7-3-21.7 9.6-35.9 13-14.6 25.4-12.5 25.7-13"/>
</svg>