<svg xmlns="http://www.w3.org/2000/svg" viewBox="0 0 1810 869">
  <path fill="#fc8127" fill-rule="evenodd" d="M1551.7 645c-2.1 1.8-4 4.7-4.7 6.8-1.3 4.9-1.4 93.5 0 98.1.5 2 2.4 5 4.2 6.8 2.7 2.8 3.9 3.3 8 3.3 4.2 0 5.3-.5 8.6-3.8l3.9-3.9 4 3.7c9.3 8.7 26.4 6.7 36-4.4 7.1-8 12-25 10.8-37.1a49 49 0 0 0-11.7-30c-8.7-9.5-21-12.3-31.1-7-2.7 1.4-5 2.5-5.3 2.5s-.4-5-.4-11c0-13.9-1.2-18.8-5.5-23a12 12 0 0 0-8.3-3.8c-4.4-.4-5.2-.1-8.5 2.8M153.5 672.3c-7 2.4-12 5.4-16.2 10a53 53 0 0 0-6.2 58.8q5.5 10.4 16.9 15.8c4.8 2.2 6.8 2.6 15.5 2.6 12 0 19.5-2.1 25.5-7.2 7-6 8.6-11.2 5-17-3.6-6-12.5-8-16-3.8-.6.8-3.1 2.1-5.5 3-9.8 3.8-19.5-1.5-19.5-10.6 0-1.8.9-1.9 17-1.9 19.2 0 21-.5 25.7-6.7 2.4-3.1 2.8-4.6 2.8-10.2 0-17.3-15.7-32.9-33.8-33.7-4.2-.2-8.8.2-11.2 1m677.7 2.3c-3.3.7-8.8 6.6-9.6 10.3-1 5.3-.7 47.5.5 52.8 4.4 20.9 26.2 29.8 40.6 16.7l4.8-4.3 3.8 4.4c3.4 4 4.3 4.4 8.1 4.4q7.6.1 11.6-8c1.9-3.6 2-6 2-34 0-33.5-.2-34.8-6.4-39.5-6.7-5.1-15-3.1-18.8 4.6-1.5 2.9-1.8 6.4-1.8 23.9 0 18-.3 21-2 24.7-2.2 5-5 6.7-9.7 5.8-5.7-1-6.3-4-6.3-29 0-23.4-.2-24.6-5.7-29.6-2.9-2.8-7.1-4-11-3.2m-672.9 20.2c-3.4 2-7.2 9.7-5.6 11.3 1.1 1.1 20.6.7 21.8-.4.4-.4 0-2.8-1-5.3-2.8-7.1-9-9.4-15.2-5.6m1420.5 3.6c-4.2 2.3-5.9 8-5.9 19.6 0 11.2 1.4 15.8 5.4 18.5 3.2 2 9.8 1.4 12.6-1.1 4.5-4 6.6-19.4 4-28.4-2.4-7.7-10.2-12-16.1-8.6"/>
  <path fill="#8757bc" fill-rule="evenodd" d="M1019.5 96.2c2.2 1.8 8.2 7.3 13.3 12.3 8.2 7.9 12.1 12.4 19.5 22.5 1.7 2.4 1.7 2.4 0-.9-4.8-8.9-20.1-25-32.3-34l-4.5-3.2zm-196 117.3c0 11 0 15.6.2 10.3s.2-14.3 0-20c-.1-5.7-.3-1.3-.3 9.7M951 324.8l-20.5 20.7 20.8-20.5 20.7-20.7c0-.8-2 1.2-21 20.4m164.6 13a205 205 0 0 1-51.6 63.7q-3.8 3.3-1.3 1.7a200 200 0 0 0 42.1-44.9 167 167 0 0 0 14-25.7c-.2-.3-1.7 2.1-3.2 5.3m-286 41.2a75 75 0 0 0 20.7 29.3c7 6.2 17.3 13 26.4 17.6 10 5 8.7 3.5-2-2.2-20.6-11-34-23.6-41.8-39.2-2.2-4.4-3.7-6.9-3.3-5.5m259.3 26.6a223 223 0 0 1-25.7 21.3 30 30 0 0 0-6.2 5c0 .4 3.4 3.1 7.7 6 35.8 25.1 66.5 62 82 98.8 3.6 8.7 6.2 17 11.4 36.5q2 8 11 11.8c14.8 6.3 31.2-.3 35-14 2-7.5-5.5-34.7-15.7-57.4a279 279 0 0 0-62.4-85.3c-13.7-12.5-30.9-26.3-32.7-26.3-.5 0-2.5 1.6-4.4 3.6m-379.2 3.2a284 284 0 0 0-75.4 87c-17 29.8-28.5 68-24.3 80.7a25 25 0 0 0 13.6 13.3c10.2 3 19.6.9 26-6 4.3-4.5 5.9-8 7.7-16.8a220 220 0 0 1 28.5-64c15-23 35-44.4 55.2-59.3l12.8-9.5 2.3-1.7-9.8-7.2c-5.4-4-13.5-10.6-18-14.8a48 48 0 0 0-9.5-7.5 44 44 0 0 0-9 5.8m50.6 5a209 209 0 0 0 41.3 24.2c.5 0-5-3.1-12.3-6.8-7.2-3.7-16.8-9.4-21.4-12.6s-8-5.3-7.6-4.8m284.2 114.8a128 128 0 0 1-30.6 34.7l-3.5 2.8 3.5-2.2c6.3-4 14.2-11.3 20-18 5.3-6.4 14.7-21.5 13.9-22.4-.3-.2-1.7 2-3.3 5.1m-199.6 11c0 1.5 5.7 10.2 10.2 15.6a74 74 0 0 0 20 14.8c.7 0-1.5-1.6-4.8-3.6a72 72 0 0 1-21.8-21.7c-2-3.4-3.6-5.7-3.6-5.1M710.6 637c-11.7 3.7-13 22-1.9 26.7 7.8 3.2 16.1.3 19.9-6.9 5.4-10.4-6.4-23.5-18-19.8m-58.4 10.6c-3.7 2.6-4.7 5.5-5.2 15.9l-.5 10-4.8.5c-6.5.8-8.9 3.4-9.5 10.3-.4 4.6 0 5.7 2 8.1s3.5 3 7.6 3.4l5.2.5v20.6c0 23.7 1 28.8 6.6 35a25 25 0 0 0 21 8c8-.5 11.2-2 15.1-7.9 5-7.4 1-15.9-8.3-17-7-.7-7.4-2-7.4-22.2V696h5.8c5.3 0 6-.3 9.2-3.5 2.9-3 3.4-4.3 3.4-7.7-.1-3.5-.8-4.8-3.8-7.5-3.1-2.9-4.2-3.3-9-3.3H674v-8.5c0-14.3-3.7-19.5-14-19.5-3.4 0-6.4.6-7.8 1.6m55.9 27.7c-1.4.6-3.4 2.8-4.5 4.7-2 3.3-2.1 5.3-2.4 35.2s-.2 32 1.7 36.3c1.6 3.7 2.9 5 6.6 6.6 5.6 2.5 9.7 1.9 13.9-2 5.4-5 5.6-6.3 5.6-40.2 0-34.5-.3-36.3-6.4-40a18 18 0 0 0-14.5-.6m687.8 2.2c-5.2 2.8-5.9 7-5.9 34.4 0 22.3.2 25.6 2 31.5q4.3 13.4 16 17c10 3 16.6 1.5 24-5.2l5-4.4 1 2.5c1.4 4 5.7 6.7 10.5 6.7q7.8 0 11.6-8.4c1.7-3.7 1.9-7 1.9-33.1 0-16-.5-30.6-1-32.6a14.4 14.4 0 0 0-19.7-8.6c-5.5 2.9-6.3 6.4-6.3 26.6 0 9.9-.5 20.3-1 23-2 8.6-10 13-14.6 8-1.7-2-2-4.3-2.4-26.3-.5-26.5-.9-28-7.1-31.2a19 19 0 0 0-14 .1"/>
  <path fill="#119aeb" fill-rule="evenodd" d="M673.3 361.3C612 407.1 568.6 470 551 539c-4.5 17.8-6.2 30-5 35.6a23 23 0 0 0 23.7 18.4c7.5 0 10.3-1.2 16-7.2 5.2-5.4 6.8-9.2 8.3-19.6 4-29.1 22.3-71.9 44.5-103.7a304 304 0 0 1 59.8-61.9q11.6-8.7 10.9-10l-5.8-7.6c-2.7-3.6-7.9-11.4-11.5-17.4a74 74 0 0 0-7.6-11.3 54 54 0 0 0-11 7m449.1 3.3a225 225 0 0 1-12.2 17.5 44 44 0 0 0-6.1 9.1c0 .7 2.8 3.3 6.2 5.8a319 319 0 0 1 74.8 80.7c7.4 11.9 18 33 22.4 44.7a241 241 0 0 1 12 48 26 26 0 0 0 17.2 21.7c6 2 14.6.7 19.5-2.8 10-7.1 12.5-16.6 9.4-35a282 282 0 0 0-43.8-106.3 338 338 0 0 0-92.2-93c-.7 0-4 4.3-7.2 9.6M1316 634.8c-3.6 1-8.6 3-11.1 4.4a59 59 0 0 0-19.2 21.8 73 73 0 0 0-8 36.5 77 77 0 0 0 7 36.5 48 48 0 0 0 57.4 25.6c1.2-.5 2.6 1 5.8 6.6 5.8 9.8 10.4 14.4 16.4 16.4 4 1.3 5.7 1.4 8.7.5 7.6-2.2 12.7-11.6 10-18.1-.7-1.7-4.3-6.7-8.1-11.3a89 89 0 0 1-6.9-8.8c0-.3 1.4-2.4 3.1-4.5a68 68 0 0 0 11-25.2c3-12.2 2.3-31.3-1.4-42a60 60 0 0 0-15.7-25.7 50 50 0 0 0-49-12.7m7 27.8c-7 3-11 8.7-14.1 20-1.8 6.5-2 9.6-1.6 18.9.7 16.2 4.1 25.2 11.5 30.2 3.3 2.1 11.7 4.1 12.9 3 .3-.4-.6-2-2-3.7-6.1-7.2-1-19 8.1-19 2.7 0 4.3.9 7.4 4 2.2 2.2 4.4 4 4.9 4 2.9 0 5-24.8 3-35.2-3.6-18.2-16.9-28-30-22.2m-816.7 10.3c-20.8 5-33.7 31-27.9 56 5.3 22.3 23.4 34.9 45 31.2 12.2-2 22.2-9.1 24.2-17 1.3-5.2-5.8-13.1-11.7-13-1.4 0-4.7 1.3-7.5 2.9-5.8 3.4-12.7 4-17.6 1.4-3-1.5-5.9-6.6-5.9-10.4 0-2 .6-2 17.8-2 17 0 17.9-.1 21.2-2.4 5-3.4 7.6-10.7 6.1-17.6a46 46 0 0 0-8.7-17.9 37 37 0 0 0-35-11.2m84 1.5c-2.8 1.3-6 3.5-7 5l-2.1 2.5-2.2-3c-3-4-8.3-6.2-12.4-5.3-4.7 1-6.7 2.5-8.8 6.6-1.8 3.5-1.9 6.3-1.9 51.5 0 44.4.2 48 1.9 51.9 3.2 7 11.8 9.5 18.1 5.1 6-4 7-7.5 7-22.4v-13.2l4.8 3.2c4 2.7 5.8 3.2 11.9 3.5 9.2.5 13.1-.8 19.6-6.8 6-5.5 10.8-14.2 12.6-22.8a88 88 0 0 0-.4-29.7c-5.7-21.8-24.6-33.8-41-26.1m584.5 3.4a17 17 0 0 0-5.5 5.2c-1.9 3.3-2 5.1-2 29.5 0 24.8.2 26.3 2.4 31.8 3 7.6 6.4 11.5 12.6 14.3a24 24 0 0 0 22.2-.6c2.8-1.6 6-4 6.8-5.2 1.4-1.8 1.8-2 2.3-.8 1 3 6 6.9 9.5 7.5 4.5.9 8-.8 12.1-5.8l3.1-3.9v-31.6c0-29.9-.1-31.9-2-35-2.9-5-8-7.5-13.4-6.8-2.5.4-5.3 1.4-6.4 2.4-4.3 3.9-4.7 6.2-4.7 26.9 0 17.3-.3 20.3-2 24-3.4 7.6-9.4 9.3-13.4 4-2-2.6-2.1-4.5-2.6-26-.6-25.8-1-27.5-7.7-30.3a12 12 0 0 0-11.3.4M508 697c-1.6 1.7-3 3.6-3 4.3s-.2 2.1-.5 3.4c-.6 2.2-.6 2.2 11 2.2 13 0 13.1 0 9.6-7-2.4-4.7-4.5-6-10-6-3.4 0-4.8.6-7.1 3.1m79.7 1.5c-3.4 3.5-4.6 8.1-4.6 18 0 13.7 3.1 19.4 10.7 19.4 2.4 0 5.5-.7 6.8-1.6 8-5.2 7.8-30-.2-36.4a10 10 0 0 0-12.7.6"/>
  <path fill="#67b640" fill-rule="evenodd" d="M652.6 300.4a386 386 0 0 0-72.3 60.8c-48.4 53.5-78.2 107.6-92.8 168.3-9 37.5-8.5 51.4 2.4 59 11.4 7.8 23.4 6.5 32.5-3.5 4.7-5.2 5.4-7.2 7.2-19.5 7.7-51.6 34.1-109.3 70.8-154.5a469 469 0 0 1 43.1-43.8c5-4.2 14.7-11.8 21.8-17a92 92 0 0 0 12.7-10.4c0-.6-1.6-5.3-3.5-10.5-2-5.2-5-15-6.8-22s-3.7-12.8-4.2-13c-.5 0-5.5 2.6-11 6.1m493.8 6.9c-2.5 10-6.9 23.1-10.7 31.8-.5 1.1 1.7 3.2 9 8.4a349 349 0 0 1 113.3 134.7 281 281 0 0 1 24.7 79c2 15.4 3.6 20 8.8 25.3 12.1 12.1 31.3 8.4 38.5-7.5 2.5-5.5 2.6-11.7.5-25.9-8.3-56.4-36.1-116.9-78-169.6a639 639 0 0 0-56.5-57.3c-15.1-12.1-43-31.2-45.6-31.2-.5 0-2.3 5.5-4 12.3M342.7 635.4a36 36 0 0 0-22.1 20.6c-2.9 6-3.1 7.3-3 17 0 9.6.2 11 2.9 16.3 5 10 12.6 15.3 29 20.1 14.1 4.2 17.3 5.6 19.5 8.3 2.7 3.5 2.6 8.4-.2 11-6.8 6.4-17.4 5.6-26.5-2a43 43 0 0 0-8-5.4c-7-2.9-15 2.1-17.3 10.7-3.8 14 12.8 27.1 36.2 28.7 24.1 1.6 42-9.8 47.3-30.2 2-7.6 2-13.8-.1-20.5-4.1-13.9-13.8-21.5-35.2-27.9-15.6-4.6-17.2-5.8-17.2-12.3 0-4.2 4.4-8.3 9.8-9.2 5.6-.8 10.4.5 17 4.8 6.7 4.3 10.1 5.1 14.7 3.6a16 16 0 0 0 9.1-9.6c2.3-9.3-7.3-19.7-22.7-24.5a62 62 0 0 0-33.2.5m800 7.6a13 13 0 0 0-8.7 9c-.5 1.9-1 8.8-1 15.2v11.7l-5.6-3c-13.7-7.2-30.5-.5-38.1 15.3a54 54 0 0 0-5.6 26.2c0 26 13 43.6 32.3 43.6 7 0 13.2-2.2 16.4-5.9 2.4-2.7 3.4-2.7 5.7.3 5 6.4 15 5.5 19.7-1.6l2.7-4.2.3-48c.3-54.9.5-53.2-7.8-57.4-4.8-2.4-6-2.5-10.4-1.2M430 674.3a31 31 0 0 0-15.4 11.7 46 46 0 0 0-8.5 30.1c0 22.8 7.6 36 24.5 42.5a46 46 0 0 0 28-.4q15.6-7 15.5-18c0-3.4-.6-5-3.3-7.8q-6.8-7.5-15.2-1.8c-8.7 6-14.5 6-18.5.4-4.3-6-4.6-21.1-.5-29 1.7-3.3 6.6-6 10.8-6a15 15 0 0 1 6.3 2.6c7.2 5 14.7 4.2 18.5-1.8 4.5-7.3.4-15.9-10.6-21.6-4.3-2.2-6.5-2.6-15.5-3-9.2-.2-11.2 0-16.1 2.1m1298.4 1.6a37 37 0 0 0-22.5 23.1 74 74 0 0 0-1.3 34.6q5.3 18.4 19.4 25c4.5 2.2 7.4 2.9 14.7 3.2 12.5.6 17.9-1.2 25.6-8.7 5.3-5.2 5.8-6 5.8-10a19 19 0 0 0-1.5-7.1c-3.1-6-12-7.9-17.2-3.6-5.9 4.9-9.3 5.7-14.2 3.2-4.2-2.2-6.6-8.6-6.5-17.6 0-17.1 8.8-24.1 20.4-16.3 9.5 6.4 20.7-.8 18.6-12.1-.9-4.6-7.7-10.8-15-13.5a45 45 0 0 0-26.3-.2m-612.2 23.5c-3 3.2-5.1 10.6-5 18 0 8 1.5 13.4 4.7 17 2.4 2.4 3.3 2.7 7 2.3 8.3-.9 11.2-6.1 11.2-20 0-10-2-16.6-5.8-18.6s-9.6-1.3-12 1.3"/>
  <path fill="#fcb821" fill-rule="evenodd" d="M644 233.6a458 458 0 0 0-199.7 220.2c-14.5 35-26.6 82.7-28 110.7-.5 10.7-.4 11.1 2.4 16.5a23.6 23.6 0 0 0 27.5 11.6c11.7-3.4 16.2-10.2 18.4-27.5q6.8-55.4 32.7-110.3a407 407 0 0 1 146.5-165L659 280l2.5-1.7v-18.4c.1-10.1.5-22.1 1-26.6.7-7.8.6-8.3-1.2-8.3-1 0-8.8 3.9-17.3 8.6m507.6-.3c.5 4.5.8 16.7.9 27 0 17.8.1 18.9 2 20 5.8 3.1 24.3 15 33.5 21.5 22.2 15.7 48 39 66.4 60.1 42.7 48.6 73 106 87.1 164.6 3.3 13.4 7.5 38.7 7.5 45 0 4 3.4 11.3 6.8 14.8a24 24 0 0 0 34.7-.5c6.7-8 7.5-13.2 5-33.3a404 404 0 0 0-59-160.5A455 455 0 0 0 1190 245.7c-14.5-9-35.8-20.7-38-20.7-1 0-1 1.7-.4 8.3M228 671a28 28 0 0 0-22.6 20.5c-2.7 9.9-.6 19.4 5.7 25.2 3 2.9 13.6 7.6 22 9.8 10 2.6 12.4 6.8 5.7 9.5-3.8 1.6-10.2 0-16.6-4-5.2-3.3-9-3.7-13.3-1.5-6 3.1-7.9 12.4-3.7 18.6 5.2 7.8 22.6 13 36.3 11 17.2-2.6 27.7-13.3 27.8-28.6.2-14-6.4-21.3-23.7-26.6-10.6-3.3-13.7-5-13.7-7.9 0-4.7 7.5-5.4 15.9-1.3 3 1.4 7 2.7 8.8 2.7 4.3 0 8.4-3.2 10.2-7.8 2.7-7-2.8-14-14.3-18-6-2-18.6-2.8-24.5-1.6m699.3 2.4c-26 6.6-37.8 41.4-23.2 68.9 9.3 17.5 31.8 24.2 52 15.5a30 30 0 0 0 13-12.3c1.6-3.5.1-9-3.3-12.5-4.1-4-10.6-4.2-16.4-.3-7.8 5.3-17.6 3.9-20.9-3-3.1-6.7-3.5-6.5 16.3-6.9 16.3-.3 18.2-.5 20.7-2.4 6.8-5 8.5-14.9 4.4-25.9a39 39 0 0 0-19.5-19.8c-6.8-2.4-17-3-23.1-1.3m69.3 0a27 27 0 0 0-20.3 24.3c-1.6 15.3 5.7 23.5 26 29.3 9.4 2.7 12 4.7 10 7.8-2.8 4.4-10.3 3.8-18-1.4-7.4-5-14.5-3.8-17.8 3-5.9 12.5 5.6 23.2 26.2 24.4 14 .7 21-1.4 28.4-8.8 8.2-8.3 10.5-16.9 7.3-27.7-2-6.5-8.9-13.2-16.8-16.2a47 47 0 0 0-6.7-2.1c-.5 0-3.4-1-6.5-2-5-2-5.5-2.4-5.5-5.1 0-5.5 7.6-6 15.8-1 4.6 3 11.2 2.8 13.9-.1 7.7-8.5 4.8-16.6-7.7-22.2a50 50 0 0 0-28.3-2.2m656.2 2a36 36 0 0 0-19.6 15.1 52 52 0 0 0-7 23c-1.5 21.3 6.3 37.8 21.5 45.2 5.3 2.6 6.6 2.8 17.7 2.8 10.4 0 12.7-.3 17-2.3 14.5-6.7 19-20 9-26.7-3.7-2.3-11.1-1.6-15.5 1.5-6.8 4.9-17.2 3.4-20.5-3-3.1-6-3-6 14.3-6 17.9 0 22-.8 25.6-5 4-4.9 5.1-10 3.6-16.8a37 37 0 0 0-19.2-25.8c-4.4-2.3-6.8-2.8-14.3-3q-9-.4-12.6 1M931 696.6c-2.1 1.5-5.1 7-5.1 9.4 0 1.2 20.6 1.4 21.4.2.8-1.4-3.1-9-5.2-10.1-3-1.6-8.4-1.3-11 .5m727.1 1.4c-2.8 1.6-5.3 6.5-5.3 10.3 0 .4 4.7.7 10.5.7 11.8 0 12.8-.6 10-5.8-3.4-6.8-9.3-8.8-15.2-5.2"/>
  <path fill="#f43f5b" fill-rule="evenodd" d="M673 152a637 637 0 0 0-77.2 38.3c-128.2 77.6-219.4 211-239.3 350.2-2.4 17-3.3 29.3-2.5 33.2a25 25 0 0 0 21.4 19c7 .7 12-1 17.4-6 6-5.6 8-10.9 9.3-23.6 5.9-63.7 31.3-132.7 70.2-191.1 45.8-68.6 101-117.5 178.5-158l16.4-8.5 4.4-13.5a234 234 0 0 1 18.4-41q3.8-6.2 1-5.9zm452-.2 4 6.7a254 254 0 0 1 17 43.2l1 4.2 19 9.6a451 451 0 0 1 192 184c28.7 51.2 47.6 109.7 52 161 1.4 15.2 3.4 20.8 9.2 26 5.2 4.7 9.5 6.5 15.8 6.5a24 24 0 0 0 22.5-17.5c1.5-4.8 1.5-6.9.5-18.2a373 373 0 0 0-13-70.3c-21.7-80.2-69.3-160-132.2-221.6a497 497 0 0 0-134.3-95.9 490 490 0 0 0-55.4-23.5q-1.1 0 2 5.8M48.9 637.3c-7 4.7-6.9 3.4-6.9 59.8v50.6l2.3 3.3c1.2 1.8 3.8 4.1 5.7 5.2 3.2 1.7 5.7 1.8 33.2 1.6 28.3-.3 29.8-.4 32.5-2.4 7.2-5.3 9.2-13.2 5-19.4-4.4-6.7-6.7-7.3-28.8-7.8l-19.9-.5v-39.3c0-44.6-.1-45.3-7.3-50.5-5-3.7-10.9-4-15.8-.6m1465.6 1.3c-3.9 2.1-14 12-16.7 16.2-2.8 4.5-2.6 7.8.8 11.3a8 8 0 0 0 6.8 2.9c10 0 28.6-14.1 28.6-21.7 0-1.3-1.5-4-3.3-6-2.8-3-4.1-3.6-8.3-4q-5-.3-7.9 1.3m-757 36.8c-24.5 11.4-29 57.1-7.5 77 3.3 3 7.4 5.7 9.7 6.4 8.6 2.6 18.5 1 22.7-3.7 1-1.2 2.3-2.1 2.7-2.1s.9 6.3 1 14c.4 12.1.7 14.2 2.5 16.6q5 6.8 11.4 6.7c5.2 0 8.8-2.5 11.8-8.3 2.2-4.4 2.2-4.7 2.2-49.7 0-36-.3-46-1.4-48.6a19 19 0 0 0-10.1-9.3c-4.8-1.2-12 3-13.8 7.9q-.5 1-2.6-1.5c-6-7.4-19.1-9.9-28.6-5.4m734 1c-22.4 9.5-31.6 43.4-17.9 66.3 5 8.2 7.9 11 16.2 15 7 3.5 7.9 3.7 17 3.7 7.5 0 11-.5 15.3-2.2 7.4-3 13.2-8 14.9-13.1 1.2-3.7 1.1-4.6-.3-7.6-1.8-3.8-7-7.5-10.2-7.5-1.1 0-4.5 1.4-7.5 3-3.9 2.1-6.9 3-10.2 3-8.3 0-12-2.7-13.4-9.8l-.7-3.2h17.5c16.5 0 17.7-.1 20.8-2.3 1.9-1.2 4.3-3.8 5.4-5.7 6.5-11-3.2-31.9-18.2-39.1a31 31 0 0 0-13.7-2.6c-7.8-.3-9.8 0-15 2.1m9.3 20.2c-1.6.8-3.7 3.2-4.8 5.4-3.5 7-3.4 7 9.5 7 10.9 0 11.5-.1 11.5-2 0-4.4-2.9-9-6.4-10.5-4.4-1.9-6.3-1.8-9.8 0m-732.3 1.9c-5 5-7 19.3-4 29.4q2.8 9.1 10 9.2c9 0 12.5-5.7 12.5-20.3 0-10.6-.9-13.9-4.8-18a10 10 0 0 0-13.7-.3"/>
  <path fill="#0823dd" fill-rule="evenodd" d="M885.6 45a234 234 0 0 0-125.1 51.7 213 213 0 0 0-80.6 140.7c-1.4 12-.7 38.7 1.5 50.5 7.5 40.5 24.8 74 53.1 102.5 18.7 19 37 32 60 43.2A193 193 0 0 0 851 452c7.4 1.2 7.5 1.3 5 2.9a74 74 0 0 0-25.6 28.9c-5.6 11.8-7 18-6.8 32.7 0 11.3.4 14 2.7 21a73 73 0 0 0 25.8 35.5c16.8 12.5 37.2 18 66.2 18 35 0 66.7-8.7 91.7-25.2a135 135 0 0 0 27.2-25.8c6-7.7 13-22 15.4-31 2.8-10.1 2.3-27-1-38.3q-6.2-20.8-20.7-37.9c-5.5-6.3-6-8.4-2.5-9.7 4.8-2 21.4-11.5 29-17a254 254 0 0 0 38.2-36.6A191 191 0 0 0 1135 268c1.3-13.5 0-32.5-3-47.7-13.2-63.8-60.6-123.1-122.5-153.4a221 221 0 0 0-68-20.5 348 348 0 0 0-55.9-1.4m-30.1 25c-32.5 8.2-59 23-82.9 46a175 175 0 0 0-53.3 109.3l-.6 7.7h105.1l.5-28.7c.5-30.2 2.3-46.8 6.8-64.8a139 139 0 0 1 34.8-63c4.5-4.4 8.1-8.3 8.1-8.7 0-1.5-7.6-.6-18.5 2.1m99.5-1.5c0 .3 2.7 4 6 8.2a96 96 0 0 1 23 62.2c0 18.3-6.2 36.9-17.7 53-8.5 12.1-28.9 31.7-59.3 57q-48.5 40.3-62.4 60c-8.3 11.8-15 25.4-17.1 34.6a73 73 0 0 0 1.4 33.6c6.2 19.6 24.9 38 50.5 50 10.1 4.8 15.2 6.1 14.3 3.7l-1.7-7.8c-3.2-17.5 7-39.6 31.1-68 11.7-13.8 42.3-44 62.9-62.2 53.6-47.4 73.8-73.1 79.6-101.7 5.6-27.9-5.3-56.9-31.2-82.5a141 141 0 0 0-38.9-27C980.4 74 955 65.9 955 68.4m-68.6 391.5a60 60 0 0 0-42.4 36.7 58 58 0 0 0 36 75c10 3.6 25.4 4.4 36.4 2a59 59 0 0 0 45.1-42.6c2.3-9 1.7-25.2-1.3-33.5-6-16.7-20.3-30-39.2-36.7a74 74 0 0 0-34.6-.9"/>
</svg>