<svg xmlns="http://www.w3.org/2000/svg" viewBox="0 0 2114 201">
  <path fill="#fc8424" fill-rule="evenodd" d="M1855.7 38c-2.1 1.8-4 4.7-4.7 6.8-1.3 4.9-1.4 93.5 0 98.1.5 2 2.4 5 4.2 6.8 2.7 2.8 3.9 3.3 8 3.3 4.2 0 5.3-.5 8.6-3.8l3.9-3.9 4 3.7c9.3 8.7 26.4 6.7 36-4.4 7.1-8 12-25 10.8-37.1a49 49 0 0 0-11.7-30c-8.7-9.5-21-12.3-31.1-7-2.7 1.4-5 2.5-5.3 2.5s-.4-5-.4-11c0-13.9-1.2-18.8-5.5-23a12 12 0 0 0-8.3-3.8c-4.4-.4-5.2-.1-8.5 2.8M457.5 65.3c-7 2.4-12 5.4-16.2 10a53 53 0 0 0-6.2 58.8q5.5 10.4 16.9 15.8c4.8 2.2 6.8 2.6 15.5 2.6 12 0 19.5-2.1 25.5-7.2 7-6 8.6-11.2 5-17-3.6-6-12.5-8-16-3.8-.6.8-3.1 2.1-5.5 3-9.8 3.8-19.5-1.5-19.5-10.6 0-1.8.9-1.9 17-1.9 19.2 0 21-.5 25.7-6.7 2.4-3.1 2.8-4.6 2.8-10.2 0-17.3-15.7-32.9-33.8-33.7-4.2-.2-8.8.2-11.2 1m677.7 2.3c-3.3.7-8.8 6.6-9.6 10.3-1 5.3-.7 47.5.5 52.8 4.4 20.9 26.2 29.8 40.6 16.7l4.8-4.3 3.8 4.4c3.4 4 4.3 4.4 8.1 4.4q7.6.1 11.6-8c1.9-3.6 2-6 2-34 0-33.5-.2-34.8-6.4-39.5-6.7-5.1-15-3.1-18.8 4.6-1.5 2.9-1.8 6.4-1.8 23.9 0 18-.3 21-2 24.7-2.2 5-5 6.7-9.7 5.8-5.7-1-6.3-4-6.3-29 0-23.4-.2-24.6-5.7-29.6-2.9-2.8-7.1-4-11-3.2m-673 20.2c-3.4 2-7.2 9.7-5.6 11.3 1.1 1.1 20.6.7 21.8-.4.4-.4 0-2.8-1-5.3-2.8-7.1-9-9.4-15.2-5.6m1420.5 3.6c-4.2 2.3-5.9 8-5.9 19.6 0 11.2 1.4 15.8 5.4 18.5 3.2 2 9.8 1.4 12.6-1.1 4.5-4 6.6-19.4 4-28.4-2.4-7.7-10.2-12-16.1-8.6"/>
  <path fill="#8859bd" fill-rule="evenodd" d="M1014.6 30c-11.7 3.7-13 22-1.9 26.7 7.8 3.2 16.1.3 19.9-6.9 5.4-10.4-6.4-23.5-18-19.8m-58.4 10.6c-3.7 2.6-4.7 5.5-5.2 15.9l-.5 10-4.8.5c-6.5.8-8.9 3.4-9.5 10.3-.4 4.6 0 5.7 2 8.1s3.5 3 7.6 3.4l5.2.5v20.6c0 23.7 1 28.8 6.6 35a25 25 0 0 0 21 8c8-.5 11.2-2 15.1-7.9 5-7.4 1-15.9-8.3-17-7-.7-7.4-2-7.4-22.2V89h5.8c5.3 0 6-.3 9.2-3.5 2.9-3 3.4-4.3 3.4-7.7-.1-3.5-.8-4.8-3.8-7.5-3.1-2.9-4.2-3.3-9-3.3H978v-8.5c0-14.3-3.7-19.5-14-19.5-3.4 0-6.4.6-7.8 1.6m55.9 27.7c-1.4.6-3.4 2.8-4.5 4.7-2 3.3-2.1 5.3-2.4 35.2s-.2 32 1.7 36.3c1.6 3.7 2.9 5 6.6 6.6 5.6 2.5 9.7 1.9 13.9-2 5.4-5 5.6-6.3 5.6-40.2 0-34.5-.3-36.3-6.4-40a18 18 0 0 0-14.5-.6m687.8 2.2c-5.2 2.8-5.9 7-5.9 34.4 0 22.3.2 25.6 2 31.5q4.3 13.4 16 17c10 3 16.6 1.5 24-5.2l5-4.4 1 2.5c1.4 4 5.7 6.7 10.5 6.7q7.8 0 11.6-8.4c1.7-3.7 1.9-7 1.9-33.1 0-16-.5-30.6-1-32.6a14.4 14.4 0 0 0-19.7-8.6c-5.5 2.9-6.3 6.4-6.3 26.6 0 9.9-.5 20.3-1 23-2 8.6-10 13-14.6 8-1.7-2-2-4.3-2.4-26.3-.5-26.5-.9-28-7.1-31.2a19 19 0 0 0-14 .1M209 111.1l-4.4 4 2.4 1.7c9 6.3 17.5 17.8 20.5 28 2.1 7.2 7.1 9.5 11.4 5.2 2.3-2.3 2.1-4.2-1.3-13a62 62 0 0 0-14.7-22c-8.5-8.5-8.7-8.5-14-3.9m-93 4.7a53 53 0 0 0-11.8 16.2c-5 10.6-6 15.1-3.8 18.5 3 4.7 9.9 2.3 11-4 1.7-9 10-20.8 20.6-29.4l2.5-2-4-3.5c-2.2-2-4.7-3.5-5.5-3.6-.8 0-4.9 3.5-9 7.8"/>
  <path fill="#129beb" fill-rule="evenodd" d="M1620 27.8c-3.6 1-8.6 3-11.1 4.4-10.8 6.3-20.7 21.2-25 37.3-3 10.7-3.1 30.4-.5 42q8 35.2 40.2 42.2a49 49 0 0 0 22.5-1.1c1.2-.5 2.7 1.2 6.3 7.3q11.2 19.1 24.1 16.5c4.4-.8 10.1-7 11-11.9s-.6-8.1-8.6-17.8a89 89 0 0 1-6.9-8.8c0-.3 1.4-2.4 3.1-4.5a68 68 0 0 0 11-25.2c3-12.2 2.3-31.3-1.4-42a60 60 0 0 0-15.7-25.7 50 50 0 0 0-49-12.7m7 27.8c-7 3-11 8.7-14.1 20-1.8 6.6-2 9.6-1.6 18.9.7 16.2 4.1 25.2 11.5 30.2 3.3 2.1 11.7 4.1 12.9 3 .3-.4-.6-2-2-3.7-6.1-7.2-1-19 8.1-19 2.7 0 4.3.9 7.4 4 2.2 2.2 4.4 4 4.8 4 3 0 5.1-24.7 3-35.2-3.5-18.2-16.8-28-30-22.2M810.4 65.9a37 37 0 0 0-16.9 10.2 52 52 0 0 0-1.8 65 42 42 0 0 0 20.4 12c16.5 3.4 36.6-5.2 39.6-17 1.3-5.2-5.8-13.1-11.7-13-1.4 0-4.7 1.3-7.5 2.9-5.8 3.4-12.7 4-17.6 1.4-3-1.5-5.9-6.6-5.9-10.4 0-2 .6-2 17.8-2 17 0 17.9-.1 21.2-2.4 5-3.4 7.6-10.7 6.1-17.6a46 46 0 0 0-8.7-17.9 37 37 0 0 0-35-11.2m84 1.5c-2.8 1.3-6 3.5-7 5l-2.1 2.5-2.2-3c-3-4-8.3-6.2-12.4-5.3-4.7 1-6.7 2.5-8.8 6.6-1.8 3.5-1.9 6.3-1.9 51.5 0 44.4.2 48 1.9 51.9 3.2 7 11.8 9.5 18.1 5.2 6-4 7-7.6 7-22.5v-13.2l4.3 2.8a23 23 0 0 0 18.3 4.2c3.1-.6 7-2 8.9-3 8-5 15-16 17.4-26.9a87 87 0 0 0-.4-29.7c-5.7-21.8-24.6-33.8-41-26.1m584.5 3.4a17 17 0 0 0-5.5 5.2c-1.9 3.3-2 5.1-2 29.5 0 24.8.2 26.3 2.4 31.8 3 7.6 6.4 11.5 12.6 14.3a24 24 0 0 0 22.2-.6c2.8-1.6 6-4 6.8-5.2 1.4-1.8 1.8-2 2.3-.8 1 3 6 6.9 9.5 7.5 4.5.9 8-.8 12.1-5.8l3.1-3.9v-31.6c0-29.9-.1-31.9-2-35-2.9-5-8-7.5-13.4-6.8-2.5.4-5.3 1.4-6.4 2.4-4.3 3.9-4.7 6.2-4.7 26.9 0 17.3-.3 20.3-2 24-3.4 7.6-9.4 9.3-13.4 4-2-2.6-2.1-4.5-2.6-26-.6-25.8-1-27.5-7.7-30.3a12 12 0 0 0-11.3.4M812 90c-1.6 1.7-3 3.6-3 4.3s-.2 2.1-.5 3.3c-.6 2.3-.6 2.3 11 2.3 13 0 13.1 0 9.6-7-2.4-4.7-4.5-6-10-6-3.4 0-4.8.6-7.1 3.1m79.7 1.5c-3.4 3.5-4.6 8.1-4.6 18 0 13.7 3.1 19.4 10.7 19.4 2.4 0 5.5-.7 6.8-1.6 8-5.2 7.8-30-.2-36.4a10 10 0 0 0-12.7.6m-784 12.4A72 72 0 0 0 85 142.7Q82.9 153 90 153c3.6 0 5.4-2.4 7-9.5a64 64 0 0 1 20.7-33c2.8-2.2 5.2-4.5 5.2-5.2.1-1.4-5-9.3-6-9.3-.4 0-4.6 3.6-9.2 8m111.4-3.6-3 4.4 8.7 8.9a57 57 0 0 1 17.2 28.8c1.7 8 3.3 10.5 6.9 10.5q7 .2 5.7-9.6a71 71 0 0 0-21.1-38C223 95 222.8 95 219 100.4"/>
  <path fill="#67b640" fill-rule="evenodd" d="M646.7 28.4A36 36 0 0 0 624.6 49c-2.9 6-3.1 7.3-3 17 0 9.6.2 11 2.9 16.3 5 10 12.6 15.3 29 20.1 14.1 4.2 17.3 5.6 19.5 8.3 2.7 3.5 2.6 8.4-.2 11-6.8 6.4-17.4 5.6-26.5-2a43 43 0 0 0-8-5.4c-7-2.9-15 2.1-17.3 10.7-3.8 14 12.8 27.1 36.2 28.7 24.1 1.6 42-9.8 47.3-30.2 2-7.6 2-13.8-.1-20.5-4.1-13.9-13.8-21.5-35.2-27.9-15.6-4.6-17.2-5.8-17.2-12.3 0-4.2 4.4-8.3 9.8-9.2 5.6-.8 10.4.5 17 4.8 6.7 4.3 10.1 5.1 14.7 3.6a16 16 0 0 0 9.1-9.6c2.3-9.3-7.3-19.7-22.7-24.5a62 62 0 0 0-33.2.5m800 7.6a13 13 0 0 0-8.7 9c-.5 1.9-1 8.8-1 15.2v11.7l-5.6-3c-13.7-7.2-30.5-.5-38.1 15.3a54 54 0 0 0-5.6 26.2c0 26 13 43.6 32.3 43.6 7 0 13.2-2.2 16.4-5.9 2.4-2.7 3.4-2.7 5.7.3 5 6.4 15 5.5 19.7-1.6l2.7-4.2.3-48c.3-54.9.5-53.2-7.8-57.3-4.8-2.5-6-2.6-10.4-1.3M734 67.3A31 31 0 0 0 718.5 79a46 46 0 0 0-8.5 30.1c0 22.8 7.6 36 24.5 42.5a46 46 0 0 0 28-.4q15.5-7 15.5-18c0-3.4-.6-5-3.3-7.8q-6.8-7.5-15.2-1.8c-8.7 6-14.5 6-18.5.4-4.3-6-4.6-21.1-.5-29 1.7-3.3 6.6-6 10.8-6a15 15 0 0 1 6.3 2.6c7.2 5 14.7 4.2 18.5-1.8 4.5-7.3.4-15.9-10.6-21.6-4.3-2.2-6.5-2.6-15.5-3-9.2-.2-11.2 0-16.1 2.1m1298.4 1.6a37 37 0 0 0-22.5 23.1 74 74 0 0 0-1.3 34.6q5.3 18.4 19.4 25c4.5 2.2 7.4 2.9 14.7 3.2 12.5.6 17.9-1.2 25.6-8.7 5.3-5.2 5.8-6 5.8-10a19 19 0 0 0-1.5-7.1c-3.1-6-12-7.9-17.2-3.6-5.9 4.9-9.3 5.7-14.2 3.2-4.2-2.2-6.6-8.6-6.5-17.6 0-17.1 8.8-24.1 20.4-16.3 9.5 6.4 20.7-.8 18.6-12.1-.9-4.6-7.7-10.8-15-13.5a45 45 0 0 0-26.3-.2m-1927 17.4a97 97 0 0 0-34.7 50.8C67.8 148.6 69 153 75 153q5.3 0 6.5-7.5a82 82 0 0 1 12.4-30 120 120 0 0 1 19-19.6l3.4-2.4-1.7-5.8c-.9-3.1-2-5.7-2.5-5.7s-3.4 2-6.6 4.3m121-2.6-1.9 5.6-1.3 3.7 7.3 6a85 85 0 0 1 21.3 27 69 69 0 0 1 6.2 20.5c0 6.2 8.3 9 11.5 4 1.4-2 1.4-3.3.5-8.4a92 92 0 0 0-32.3-53c-8.6-6.7-10.6-7.7-11.3-5.4m1193.7 8.7c-3 3.2-5.1 10.6-5 18 0 8 1.5 13.4 4.7 17 2.4 2.4 3.3 2.7 7 2.3 8.3-.9 11.2-6.1 11.2-20 0-10-2-16.6-5.8-18.6s-9.6-1.3-12 1.3m-603 23.3c4.9.2 12.7.2 17.5 0 4.9-.1 1-.3-8.7-.3s-13.6.2-8.7.3"/>
  <path fill="#fbb621" fill-rule="evenodd" d="M532.1 64a28 28 0 0 0-22.6 20.5c-2.7 9.9-.6 19.4 5.7 25.2 3 2.9 13.6 7.6 22 9.8 10 2.6 12.4 6.8 5.7 9.5-3.8 1.6-10.2 0-16.6-4-5.2-3.3-9-3.7-13.3-1.5-6 3.1-7.9 12.4-3.7 18.6 5.2 7.8 22.6 13 36.3 11 17.2-2.6 27.7-13.3 27.8-28.6.2-14-6.4-21.3-23.7-26.6-10.6-3.3-13.7-5-13.7-7.9 0-4.7 7.5-5.4 15.9-1.3 3 1.4 7 2.7 8.8 2.7 4.3 0 8.4-3.2 10.2-7.8 2.7-7-2.8-14-14.3-18-6-2-18.6-2.8-24.5-1.6m699.3 2.4c-26 6.6-37.8 41.4-23.2 68.9 9.3 17.5 31.8 24.2 52 15.5a30 30 0 0 0 13-12.3c1.6-3.5.1-9-3.3-12.5-4.1-4-10.6-4.2-16.4-.3-7.8 5.3-17.6 3.9-20.9-3-3.1-6.7-3.5-6.5 16.3-6.9 16.3-.3 18.2-.5 20.7-2.4 6.8-5 8.5-14.9 4.4-25.9a39 39 0 0 0-19.5-19.8c-6.8-2.4-17-3-23.1-1.3m69.3 0a27 27 0 0 0-20.3 24.3c-1.6 15.3 5.7 23.5 26 29.3 9.4 2.7 12 4.7 10 7.8-2.8 4.4-10.3 3.8-18-1.4-7.4-5-14.5-3.8-17.8 3-5.9 12.5 5.6 23.2 26.2 24.4 14 .7 21-1.4 28.4-8.8 8.2-8.3 10.5-16.9 7.3-27.7-2-6.5-8.9-13.2-16.8-16.2a47 47 0 0 0-6.7-2.1c-.5 0-3.4-1-6.5-2-5-2-5.5-2.4-5.5-5.1 0-5.5 7.6-6 15.8-1 4.6 3 11.2 2.8 13.9-.2 7.7-8.4 4.8-16.5-7.7-22.1a50 50 0 0 0-28.3-2.2M106 68.3A116 116 0 0 0 59.9 121c-5.2 12.6-7.5 27.9-4.7 30.7.7.7 2.7 1.2 4.4 1.2 3.8 0 6.4-3 6.4-7 0-5 4.2-18.5 8.1-26.6a98 98 0 0 1 32.4-36.9c5.4-3.4 5.5-3.5 5.5-8.4 0-2.7.3-5.6.6-6.5.9-2.3-2.3-2-6.6.7m121.3 4.1.2 6.5 6.4 4.3c19.3 13 32.5 32 37.8 54.6 3.5 15 3.6 15.2 7.8 15.2 2.6 0 3.9-.6 5.1-2.5 1.5-2.3 1.5-3.4.4-10.3A105 105 0 0 0 228.3 66c-.7 0-1 2.4-1 6.4m1729.6-4a36 36 0 0 0-19.6 15.1 52 52 0 0 0-7 23c-1.5 21.3 6.3 37.8 21.5 45.2 5.3 2.6 6.6 2.8 17.7 2.8 10.4 0 12.7-.3 17-2.3 14.5-6.7 19-20 9-26.7-3.7-2.3-11.1-1.6-15.5 1.5-6.8 4.9-17.2 3.4-20.5-3-3.1-6-3-6 14.3-6 17.9 0 22-.8 25.6-5 4-4.9 5.1-10 3.6-16.8a37 37 0 0 0-19.2-25.8c-4.4-2.3-6.8-2.8-14.3-3q-9-.4-12.6 1m-721.8 21.2c-2.1 1.5-5.1 7-5.1 9.4 0 1.2 20.6 1.4 21.4.2.8-1.4-3.1-9-5.2-10.1-3-1.6-8.4-1.3-11 .5m727.1 1.4c-2.8 1.6-5.3 6.5-5.3 10.3 0 .4 4.7.7 10.5.7 11.8 0 12.8-.6 10-5.8-3.4-6.8-9.3-8.8-15.2-5.2"/>
  <path fill="#f43f5c" fill-rule="evenodd" d="M352.9 30.3c-7 4.7-6.9 3.4-6.9 59.8v50.6l2.3 3.3c1.2 1.8 3.8 4.1 5.7 5.2 3.2 1.7 5.7 1.8 33.2 1.6 28.3-.3 29.8-.4 32.5-2.4 7.2-5.3 9.2-13.2 5-19.4-4.4-6.7-6.7-7.3-28.8-7.8l-19.9-.5V81.4c0-44.6-.1-45.3-7.3-50.5-5-3.7-10.9-4-15.8-.6M1818 31.9a67 67 0 0 0-17.4 18.2c-1.7 4-1.2 6 2.4 9.4 3.7 3.5 8.4 3.5 15.4 0 11.2-5.7 19.6-13.9 19.6-19.2 0-1.3-1.5-4-3.3-6-2.8-3-4.1-3.6-8.3-4-3.5-.2-5.9.2-8.4 1.6m-1711.7 20a124 124 0 0 0-55.8 55.6 98 98 0 0 0-10.8 31.8c-1.4 9.5-.1 13 5 13.5 3.9.4 5.8-2.4 6.8-9.8 2.1-15.8 9.5-34 18.7-46.4a106 106 0 0 1 38-32.1c4.6-2.4 5.9-3.6 6.4-6 .3-1.6 1.6-5 3-7.2 2-4 2.1-4.3.4-4.3a62 62 0 0 0-11.7 5M222 50c1 1.9 2.5 5.2 3.1 7.4 1 3.6 2 4.6 8.2 8a101 101 0 0 1 54.4 76.7 24 24 0 0 0 2.3 8.5c2 2.8 6.2 3 8.6.3 3.9-4.3.2-23-8-40.9a134 134 0 0 0-49.5-54c-5-2.9-16-8-18.5-8.7l-2.6-.6zm839.6 18.3c-24.5 11.4-29 57.1-7.5 77a24 24 0 0 0 18.9 7.6c5.9 0 10.7-1.7 13.5-4.9 1-1.1 2.3-2.1 2.7-2.1s.9 6.3 1 14c.4 12.1.7 14.2 2.5 16.6q5 6.8 11.4 6.7c5.2 0 8.8-2.5 11.8-8.3 2.2-4.4 2.2-4.7 2.2-49.7 0-36-.3-46-1.4-48.6a19 19 0 0 0-10.1-9.3c-4.8-1.2-12 3-13.8 7.9q-.5 1-2.6-1.5c-6-7.4-19.1-9.9-28.6-5.4m734 1c-22.4 9.5-31.6 43.4-17.9 66.3 5 8.3 7.9 11 16.3 15.1 7 3.5 8 3.7 17 3.6 7.3 0 11-.6 15.2-2.2 7.4-3 13.2-8 14.9-13.1 1.2-3.7 1.1-4.6-.3-7.6-1.8-3.8-7-7.5-10.2-7.5-1.1 0-4.5 1.4-7.5 3-3.9 2.1-6.9 3-10.2 3-8.3 0-12-2.7-13.4-9.8l-.7-3.2h17.2c15 0 17.7-.2 21-2 11-5.6 9.3-26-3.3-38.4-7-6.8-12.4-9-23.1-9.3-7.8-.3-9.8 0-15 2.1m9.3 20.2c-1.6.8-3.7 3.2-4.8 5.4-3.5 7-3.4 7 9.5 7 10.9 0 11.5-.1 11.5-2 0-4.4-2.9-9-6.4-10.5-4.4-1.9-6.3-1.8-9.8 0m-732.3 1.9c-7 7-7.2 29-.5 35.8 5.2 5.2 13.6 3.4 17-3.7a52 52 0 0 0 .6-26.9c-3-7.4-12.1-10.1-17-5.2"/>
  <path fill="#0823dd" fill-rule="evenodd" d="M154 25.3a58 58 0 0 0-24.1 15.5c-16.5 17.5-18.5 39.8-5.3 58.9 2 3 5.3 6.8 7.3 8.4 5 4.2 18.7 10.9 22.2 10.9q4.8 0 1.3 3c-4.7 4-6.6 13.1-4 19.3 6.9 16.6 40.2 14.2 50.7-3.6 3.9-6.7 3.6-12.4-1-19.7l-3-5 3.1-1.6c4.2-2.2 12.5-10 15.4-14.6 12.4-19.5 8.6-42.2-10-59.5A58 58 0 0 0 183 24c-8-1.9-21.8-1.3-29 1.2m2 4.6a43 43 0 0 0-29.7 32l-.6 5.1H150v-5.2c.3-14 3.6-24.1 10.3-31.5 1.1-1.3 1.9-2.3 1.6-2.2zm27.3 2.4a21 21 0 0 1 3.5 20c-1.3 4.4-8.2 11.8-23.5 25.4-9.9 8.8-12.8 14-12 21.5.3 4.2 1 5.6 4.3 8.9a29 29 0 0 0 7.5 5.3l3.5 1.5-.4-2.8c-.8-5.8 4.2-12.7 21.3-29.6 9-8.8 17-17.5 18-19.4a22 22 0 0 0-.3-17.7c-2.7-5.4-9.2-11-15.9-14-7.6-3.4-9-3.2-6 .9M162 122.8c-4.2 2-8 7.5-8 11.4 0 8.2 5.9 13.8 14.6 13.8 9.2 0 14.8-5.6 14-14.3-.7-9.9-11.4-15.6-20.6-11"/>
</svg>